<svg xmlns="http://www.w3.org/2000/svg" xmlns:xlink="http://www.w3.org/1999/xlink" width="175" zoomAndPan="magnify" viewBox="0 0 131.25 30.000001" height="40" preserveAspectRatio="xMidYMid meet" version="1.0"><defs><g/><clipPath id="3e44983581"><path d="M 72 0 L 128.769531 0 L 128.769531 29.03125 L 72 29.03125 Z M 72 0 " clip-rule="nonzero"/></clipPath><clipPath id="e4c6430a62"><path d="M 12 0 L 103 0 L 103 29.03125 L 12 29.03125 Z M 12 0 " clip-rule="nonzero"/></clipPath></defs><g clip-path="url(#3e44983581)"><path stroke-linecap="butt" transform="matrix(3.185535, 0, 0, 3.185535, 11.334676, -1.767177)" fill="none" stroke-linejoin="miter" d="M 29.898725 4.105959 C 30.076531 4.105959 30.228585 4.167271 30.354889 4.288669 C 30.483645 4.411294 30.548636 4.564575 30.548636 4.75219 L 30.548636 5.55906 C 30.548636 5.736866 30.483645 5.88892 30.354889 6.018902 C 30.228585 6.145206 30.076531 6.208971 29.898725 6.208971 L 29.006018 6.208971 L 29.006018 7.106583 C 29.006018 7.28071 28.941027 7.432764 28.812271 7.56152 C 28.684742 7.68905 28.532687 7.751588 28.356108 7.751588 L 27.534523 7.751588 C 27.356717 7.751588 27.207115 7.68905 27.085717 7.56152 C 26.963092 7.432764 26.903006 7.28071 26.903006 7.106583 L 26.903006 6.208971 L 25.990679 6.208971 C 25.8141 6.208971 25.662045 6.145206 25.535742 6.018902 C 25.408213 5.88892 25.344448 5.736866 25.344448 5.55906 L 25.344448 4.75219 C 25.344448 4.564575 25.408213 4.411294 25.535742 4.288669 C 25.662045 4.167271 25.8141 4.105959 25.990679 4.105959 L 26.903006 4.105959 L 26.903006 3.193632 C 26.903006 3.017052 26.963092 2.864998 27.085717 2.738695 C 27.207115 2.611165 27.356717 2.548626 27.534523 2.548626 L 28.356108 2.548626 C 28.532687 2.548626 28.684742 2.611165 28.812271 2.738695 C 28.941027 2.864998 29.006018 3.017052 29.006018 3.193632 L 29.006018 4.105959 Z M 29.898725 4.105959 " stroke="#43ba2c" stroke-width="1.103032" stroke-opacity="1" stroke-miterlimit="4"/></g><g fill="#000000" fill-opacity="1"><g transform="translate(91.271706, 33.273713)"><g><path d="M 15.3125 -21.96875 C 15.875 -21.96875 16.359375 -21.769531 16.765625 -21.375 C 17.171875 -20.988281 17.375 -20.5 17.375 -19.90625 L 17.375 -17.328125 C 17.375 -16.765625 17.171875 -16.28125 16.765625 -15.875 C 16.359375 -15.46875 15.875 -15.265625 15.3125 -15.265625 L 12.453125 -15.265625 L 12.453125 -12.40625 C 12.453125 -11.84375 12.25 -11.359375 11.84375 -10.953125 C 11.4375 -10.546875 10.953125 -10.34375 10.390625 -10.34375 L 7.78125 -10.34375 C 7.21875 -10.34375 6.738281 -10.546875 6.34375 -10.953125 C 5.957031 -11.359375 5.765625 -11.84375 5.765625 -12.40625 L 5.765625 -15.265625 L 2.859375 -15.265625 C 2.296875 -15.265625 1.8125 -15.46875 1.40625 -15.875 C 1 -16.28125 0.796875 -16.765625 0.796875 -17.328125 L 0.796875 -19.90625 C 0.796875 -20.5 1 -20.988281 1.40625 -21.375 C 1.8125 -21.769531 2.296875 -21.96875 2.859375 -21.96875 L 5.765625 -21.96875 L 5.765625 -24.859375 C 5.765625 -25.421875 5.957031 -25.90625 6.34375 -26.3125 C 6.738281 -26.71875 7.21875 -26.921875 7.78125 -26.921875 L 10.390625 -26.921875 C 10.953125 -26.921875 11.4375 -26.71875 11.84375 -26.3125 C 12.25 -25.90625 12.453125 -25.421875 12.453125 -24.859375 L 12.453125 -21.96875 Z M 15.3125 -21.96875 "/></g></g></g><g clip-path="url(#e4c6430a62)"><path stroke-linecap="butt" transform="matrix(2.132831, 0, 0, 2.132831, -1.090808, 9.347711)" fill="none" stroke-linejoin="miter" d="M 20.844596 -1.95239 C 20.921518 -1.706971 20.981957 -1.413933 21.024081 -1.069614 C 21.069869 -0.727126 21.091846 -0.340682 21.091846 0.089717 C 21.091846 0.934032 20.989283 1.620839 20.784157 2.150139 C 20.57903 2.679438 20.353758 3.089691 20.108338 3.384561 C 19.698086 3.875399 19.163292 4.120818 18.505788 4.120818 L 16.463681 4.120818 L 16.463681 6.807608 C 16.463681 7.131781 16.350129 7.406504 16.124856 7.633608 C 15.901415 7.858881 15.632186 7.970602 15.317171 7.970602 L 13.789711 7.970602 C 13.476527 7.970602 13.205467 7.858881 12.978363 7.633608 C 12.75309 7.406504 12.641369 7.131781 12.641369 6.807608 L 12.641369 -2.569601 C 12.641369 -2.882785 12.75309 -3.153845 12.978363 -3.384612 C 13.205467 -3.615379 13.476527 -3.732595 13.789711 -3.732595 L 18.447181 -3.732595 C 18.994795 -3.732595 19.491128 -3.567761 19.936179 -3.236262 C 20.384893 -2.908426 20.687088 -2.479858 20.844596 -1.95239 Z M 17.800666 0.0622448 C 17.800666 -0.172185 17.718249 -0.379143 17.549752 -0.554966 C 17.384919 -0.73262 17.179792 -0.820532 16.932541 -0.820532 L 16.652324 -0.820532 C 16.595548 -0.820532 16.549761 -0.798554 16.513131 -0.752767 C 16.480164 -0.710642 16.463681 -0.663024 16.463681 -0.613574 L 16.463681 0.972493 C 16.463681 1.089708 16.525952 1.148316 16.652324 1.148316 L 16.932541 1.148316 C 17.179792 1.148316 17.384919 1.064068 17.549752 0.893739 C 17.718249 0.72158 17.800666 0.51279 17.800666 0.269203 Z M 26.657733 -0.569618 C 26.628429 -0.569618 26.60462 -0.554966 26.582642 -0.523831 C 26.562496 -0.494527 26.553338 -0.470718 26.553338 -0.452403 L 26.553338 0.516453 C 26.553338 0.576892 26.588136 0.606196 26.657733 0.606196 L 28.818886 0.606196 C 29.014855 0.606196 29.181521 0.675793 29.317051 0.811323 C 29.456244 0.948684 29.52584 1.113518 29.52584 1.309487 L 29.52584 2.913869 C 29.52584 3.111669 29.456244 3.276503 29.317051 3.413864 C 29.181521 3.549394 29.014855 3.617159 28.818886 3.617159 L 26.657733 3.617159 C 26.588136 3.617159 26.553338 3.651958 26.553338 3.721554 L 26.553338 4.662938 C 26.553338 4.732534 26.588136 4.767333 26.657733 4.767333 L 29.639392 4.767333 C 29.857339 4.767333 30.042319 4.846087 30.192501 5.003594 C 30.346346 5.159271 30.423268 5.344251 30.423268 5.560366 L 30.423268 7.206872 C 30.423268 7.422988 30.346346 7.604305 30.192501 7.752655 C 30.042319 7.899174 29.857339 7.970602 29.639392 7.970602 L 23.628455 7.970602 C 23.324428 7.970602 23.069852 7.85705 22.864725 7.626282 C 22.659599 7.395515 22.555204 7.064016 22.555204 6.631786 L 22.555204 -2.935898 C 22.555204 -3.102563 22.659599 -3.280217 22.864725 -3.467029 C 23.069852 -3.653841 23.324428 -3.747246 23.628455 -3.747246 L 29.639392 -3.747246 C 29.857339 -3.747246 30.042319 -3.672155 30.192501 -3.523805 C 30.346346 -3.377286 30.423268 -3.197801 30.423268 -2.981685 L 30.423268 -1.335179 C 30.423268 -1.128221 30.346346 -0.948736 30.192501 -0.796722 C 30.042319 -0.644709 29.857339 -0.569618 29.639392 -0.569618 Z M 41.481782 -3.760067 C 41.765662 -3.760067 42.00925 -3.659335 42.210713 -3.459703 C 42.410345 -3.25824 42.511077 -3.014652 42.511077 -2.730772 L 42.511077 -0.717968 C 42.511077 -0.441414 42.410345 -0.201489 42.210713 0.0036372 C 42.00925 0.210595 41.765662 0.313158 41.481782 0.313158 L 39.468978 0.313158 C 39.390224 0.313158 39.349932 0.346125 39.349932 0.41389 L 39.349932 6.998083 C 39.349932 7.274637 39.2492 7.514562 39.047737 7.719688 C 38.848105 7.926646 38.606348 8.029209 38.3243 8.029209 L 36.324317 8.029209 C 36.029447 8.029209 35.782197 7.926646 35.580733 7.719688 C 35.381101 7.514562 35.28037 7.274637 35.28037 6.998083 L 35.28037 0.41389 C 35.28037 0.346125 35.245571 0.313158 35.175975 0.313158 L 33.14852 0.313158 C 32.873797 0.313158 32.632041 0.210595 32.426914 0.0036372 C 32.221788 -0.201489 32.119224 -0.441414 32.119224 -0.717968 L 32.119224 -2.730772 C 32.119224 -3.014652 32.221788 -3.25824 32.426914 -3.459703 C 32.632041 -3.659335 32.873797 -3.760067 33.14852 -3.760067 Z M 41.481782 -3.760067 " stroke="#43ba2c" stroke-width="1.103032" stroke-opacity="1" stroke-miterlimit="4"/></g><g fill="#000000" fill-opacity="1"><g transform="translate(24.836416, 26.410357)"><g><path d="M 18.53125 -21.234375 C 18.695312 -20.710938 18.828125 -20.082031 18.921875 -19.34375 C 19.015625 -18.613281 19.0625 -17.789062 19.0625 -16.875 C 19.0625 -15.070312 18.84375 -13.601562 18.40625 -12.46875 C 17.96875 -11.34375 17.488281 -10.46875 16.96875 -9.84375 C 16.082031 -8.800781 14.941406 -8.28125 13.546875 -8.28125 L 9.1875 -8.28125 L 9.1875 -2.546875 C 9.1875 -1.847656 8.945312 -1.257812 8.46875 -0.78125 C 7.988281 -0.300781 7.414062 -0.0625 6.75 -0.0625 L 3.484375 -0.0625 C 2.816406 -0.0625 2.238281 -0.300781 1.75 -0.78125 C 1.269531 -1.257812 1.03125 -1.847656 1.03125 -2.546875 L 1.03125 -22.546875 C 1.03125 -23.210938 1.269531 -23.789062 1.75 -24.28125 C 2.238281 -24.78125 2.816406 -25.03125 3.484375 -25.03125 L 13.421875 -25.03125 C 14.585938 -25.03125 15.644531 -24.675781 16.59375 -23.96875 C 17.550781 -23.269531 18.195312 -22.359375 18.53125 -21.234375 Z M 12.046875 -16.9375 C 12.046875 -17.4375 11.863281 -17.875 11.5 -18.25 C 11.144531 -18.625 10.707031 -18.8125 10.1875 -18.8125 L 9.59375 -18.8125 C 9.46875 -18.8125 9.367188 -18.765625 9.296875 -18.671875 C 9.222656 -18.578125 9.1875 -18.476562 9.1875 -18.375 L 9.1875 -14.984375 C 9.1875 -14.734375 9.320312 -14.609375 9.59375 -14.609375 L 10.1875 -14.609375 C 10.707031 -14.609375 11.144531 -14.789062 11.5 -15.15625 C 11.863281 -15.53125 12.046875 -15.976562 12.046875 -16.5 Z M 12.046875 -16.9375 "/></g></g></g><g fill="#000000" fill-opacity="1"><g transform="translate(45.98359, 26.410357)"><g><path d="M 9.78125 -18.28125 C 9.71875 -18.28125 9.664062 -18.25 9.625 -18.1875 C 9.582031 -18.125 9.5625 -18.070312 9.5625 -18.03125 L 9.5625 -15.96875 C 9.5625 -15.84375 9.632812 -15.78125 9.78125 -15.78125 L 14.390625 -15.78125 C 14.804688 -15.78125 15.160156 -15.628906 15.453125 -15.328125 C 15.753906 -15.035156 15.90625 -14.679688 15.90625 -14.265625 L 15.90625 -10.84375 C 15.90625 -10.425781 15.753906 -10.070312 15.453125 -9.78125 C 15.160156 -9.488281 14.804688 -9.34375 14.390625 -9.34375 L 9.78125 -9.34375 C 9.632812 -9.34375 9.5625 -9.269531 9.5625 -9.125 L 9.5625 -7.125 C 9.5625 -6.976562 9.632812 -6.90625 9.78125 -6.90625 L 16.15625 -6.90625 C 16.613281 -6.90625 17.003906 -6.734375 17.328125 -6.390625 C 17.648438 -6.054688 17.8125 -5.660156 17.8125 -5.203125 L 17.8125 -1.6875 C 17.8125 -1.226562 17.648438 -0.84375 17.328125 -0.53125 C 17.003906 -0.21875 16.613281 -0.0625 16.15625 -0.0625 L 3.328125 -0.0625 C 2.679688 -0.0625 2.132812 -0.304688 1.6875 -0.796875 C 1.25 -1.285156 1.03125 -1.992188 1.03125 -2.921875 L 1.03125 -23.328125 C 1.03125 -23.679688 1.25 -24.054688 1.6875 -24.453125 C 2.132812 -24.859375 2.679688 -25.0625 3.328125 -25.0625 L 16.15625 -25.0625 C 16.613281 -25.0625 17.003906 -24.898438 17.328125 -24.578125 C 17.648438 -24.265625 17.8125 -23.878906 17.8125 -23.421875 L 17.8125 -19.90625 C 17.8125 -19.46875 17.648438 -19.085938 17.328125 -18.765625 C 17.003906 -18.441406 16.613281 -18.28125 16.15625 -18.28125 Z M 9.78125 -18.28125 "/></g></g></g><g fill="#000000" fill-opacity="1"><g transform="translate(66.378922, 26.410357)"><g><path d="M 21.015625 -25.09375 C 21.617188 -25.09375 22.132812 -24.875 22.5625 -24.4375 C 22.988281 -24.007812 23.203125 -23.492188 23.203125 -22.890625 L 23.203125 -18.59375 C 23.203125 -18.007812 22.988281 -17.5 22.5625 -17.0625 C 22.132812 -16.625 21.617188 -16.40625 21.015625 -16.40625 L 16.71875 -16.40625 C 16.550781 -16.40625 16.46875 -16.332031 16.46875 -16.1875 L 16.46875 -2.125 C 16.46875 -1.539062 16.25 -1.03125 15.8125 -0.59375 C 15.382812 -0.15625 14.867188 0.0625 14.265625 0.0625 L 10 0.0625 C 9.375 0.0625 8.847656 -0.15625 8.421875 -0.59375 C 7.992188 -1.03125 7.78125 -1.539062 7.78125 -2.125 L 7.78125 -16.1875 C 7.78125 -16.332031 7.707031 -16.40625 7.5625 -16.40625 L 3.234375 -16.40625 C 2.648438 -16.40625 2.132812 -16.625 1.6875 -17.0625 C 1.25 -17.5 1.03125 -18.007812 1.03125 -18.59375 L 1.03125 -22.890625 C 1.03125 -23.492188 1.25 -24.007812 1.6875 -24.4375 C 2.132812 -24.875 2.648438 -25.09375 3.234375 -25.09375 Z M 21.015625 -25.09375 "/></g></g></g></svg>